PathFileType	4	(X/Y/Z)	./resultDataOpenSim/trcMotMarkerGrf/sub09/qtm-05-04.trc
DataRate	CameraRate	NumFrames	NumMarkers	Units	OrigDataRate	OrigDataStartFrame	OrigNumFrames
250.000000	250.000000	8	24	m	250.000000	160	636
Frame#	Time	L.Toe.Tip			R.Toe.Tip			L.Ankle.Lat			R.Ankle.Lat			L.Ankle.Med			R.Ankle.Med			L.Heel			R.Heel			L.Knee.Lat			R.Knee.Lat			L.Knee.Med			R.Knee.Med			L.Thigh.Upper			R.Thigh.Upper			L.ASIS			R.ASIS			V.Sacral			L.Acromium			R.Acromium			C7			L.Elbow			R.Elbow			L.Wrist.Lat			R.Wrist.Lat
		X1	Y1	Z1	X2	Y2	Z2	X3	Y3	Z3	X4	Y4	Z4	X5	Y5	Z5	X6	Y6	Z6	X7	Y7	Z7	X8	Y8	Z8	X9	Y9	Z9	X10	Y10	Z10	X11	Y11	Z11	X12	Y12	Z12	X13	Y13	Z13	X14	Y14	Z14	X15	Y15	Z15	X16	Y16	Z16	X17	Y17	Z17	X18	Y18	Z18	X19	Y19	Z19	X20	Y20	Z20	X21	Y21	Z21	X22	Y22	Z22	X23	Y23	Z23	X24	Y24	Z24

160	0.636	0.067977983	0.059511649	0.016290954	-0.67103749	0.037656658	0.080730404	-0.087086634	0.053594253	-0.028568899	-0.81394503	0.064218539	0.096015778	-0.072733482	0.078610702	0.066422078	-0.78907953	0.097141177	0.004776299	-0.1400407	-0.00093275641	0.019967443	-0.88252608	0.051852126	0.037596481	-0.22306312	0.44547507	-0.074467328	-0.56591764	0.44807653	0.18929507	-0.22899894	0.4393356	0.053346642	-0.55314516	0.43160541	0.048292012	-0.41697359	0.81253185	-0.12276509	-0.49918714	0.8326862	0.24485184	-0.35435376	0.90677304	-0.055551008	-0.38179779	0.91479569	0.18694895	-0.53758084	0.95548003	0.037875785	-0.38406319	1.3589685	-0.11175262	-0.41005535	1.365894	0.21843755	-0.46254691	1.4158208	0.051568551	-0.5513925	1.0350441	-0.17004275	-0.51281105	0.99757411	0.30204141	-0.4691679	0.78962853	-0.21186536	-0.25016012	0.90071637	0.26418879
161	0.64	0.070971777	0.054089525	0.016870586	-0.67100661	0.037711884	0.080868733	-0.084153266	0.049802668	-0.02840577	-0.81335909	0.065510297	0.096010389	-0.069464193	0.074614495	0.066651013	-0.78804046	0.098110281	0.0046371695	-0.13754405	-0.004179458	0.019892223	-0.88210908	0.05371678	0.037149061	-0.21594021	0.44302162	-0.074420333	-0.55612944	0.44286436	0.18733178	-0.22154059	0.43741502	0.053565156	-0.54793023	0.42930724	0.04855472	-0.41050342	0.81035144	-0.12275855	-0.49343366	0.83033145	0.2447989	-0.3472763	0.90441243	-0.055295378	-0.37553309	0.91208302	0.18733594	-0.53081739	0.95298682	0.037620753	-0.37823557	1.3564721	-0.11210669	-0.40432401	1.3634707	0.21819451	-0.45658188	1.4133153	0.051207537	-0.5453453	1.0324619	-0.17021388	-0.50725726	0.99518334	0.30151277	-0.46372392	0.78705816	-0.21266744	-0.2449814	0.89777142	0.26417932
162	0.644	0.073663732	0.048346937	0.017474885	-0.67093466	0.03776538	0.080974805	-0.081560471	0.045943932	-0.028265889	-0.81269553	0.066992946	0.096075309	-0.0665007	0.07054529	0.06686784	-0.78686019	0.099180044	0.0045207863	-0.13538805	-0.0073804633	0.019761873	-0.88164514	0.055744439	0.036691245	-0.20896215	0.44051217	-0.074279774	-0.54516355	0.4367802	0.1842437	-0.21413383	0.43547589	0.053747307	-0.54257484	0.42701361	0.048894308	-0.40389002	0.80822242	-0.12278646	-0.48763023	0.82799238	0.24474074	-0.34014578	0.90208376	-0.05502479	-0.36917345	0.9094004	0.18771576	-0.52384682	0.95025179	0.037264502	-0.37236084	1.3539989	-0.1124558	-0.3985629	1.361108	0.21796495	-0.45058477	1.4108294	0.050834313	-0.53926483	1.0298891	-0.17032826	-0.50173239	0.99285357	0.30097178	-0.4581864	0.78450673	-0.21346113	-0.23987089	0.89473193	0.26419053
163	0.648	0.076053839	0.04226695	0.01809631	-0.6708217	0.037816653	0.081056036	-0.079266909	0.042042398	-0.028127192	-0.81203528	0.068610344	0.096138876	-0.063833875	0.06642036	0.067073236	-0.78551794	0.1003546	0.0044576236	-0.13362722	-0.010513594	0.01965504	-0.88113445	0.05795191	0.036194659	-0.20204656	0.43795502	-0.07404232	-0.53431488	0.43142075	0.18121938	-0.20678125	0.4335077	0.053879391	-0.53708188	0.42472153	0.04932193	-0.39710533	0.8061322	-0.12284145	-0.48177027	0.82566379	0.24467182	-0.33295263	0.89977493	-0.05473756	-0.36266229	0.90677204	0.18808687	-0.51675861	0.94739237	0.036824827	-0.36644233	1.351553	-0.11280427	-0.39277719	1.3588026	0.21774136	-0.44456011	1.4083428	0.050442851	-0.53314072	1.0273361	-0.17041844	-0.49623184	0.99059541	0.30040478	-0.45256074	0.78197614	-0.21425006	-0.23484015	0.89159819	0.26421367
164	0.652	0.078136256	0.03585758	0.018730733	-0.67067987	0.037871935	0.081131939	-0.077254038	0.038111567	-0.027983463	-0.81145869	0.070299584	0.096131173	-0.061455491	0.062251123	0.067271627	-0.78407234	0.10163149	0.0044716442	-0.13227489	-0.013561291	0.019612588	-0.88057196	0.06034299	0.035660465	-0.19511726	0.435386	-0.073742763	-0.52362778	0.42736969	0.17881902	-0.19948027	0.43150371	0.053958842	-0.53149724	0.42241672	0.049816462	-0.39017057	0.80407022	-0.12288986	-0.47578378	0.82332051	0.24453793	-0.32569449	0.89748219	-0.054434004	-0.35597138	0.90420541	0.18844835	-0.50994248	0.94468786	0.036575291	-0.36047917	1.3491313	-0.11315643	-0.3869786	1.3565393	0.21750809	-0.43851009	1.4058423	0.050033593	-0.52695351	1.0248059	-0.17051623	-0.49076918	0.98841641	0.2998026	-0.44686036	0.77947186	-0.21502654	-0.22989768	0.8883718	0.2642439
165	0.656	0.079898329	0.029144919	0.019394511	-0.67051993	0.037937879	0.081211861	-0.075517501	0.034156928	-0.027832748	-0.81098711	0.07204719	0.096028718	-0.059359924	0.058043041	0.067469381	-0.78262039	0.10300742	0.004545279	-0.13129604	-0.016507571	0.019618866	-0.87994269	0.062901873	0.035140178	-0.18816393	0.43284397	-0.073434443	-0.51275553	0.42440483	0.17707289	-0.19223312	0.42945715	0.05399524	-0.52587617	0.42008286	0.050351011	-0.38309966	0.80202847	-0.12290537	-0.46944244	0.8208655	0.24416883	-0.31836865	0.89520394	-0.05411969	-0.34914042	0.90167753	0.1888	-0.50390293	0.94243479	0.036890183	-0.35446631	1.3467288	-0.11350803	-0.381175	1.3543075	0.21725554	-0.43243388	1.4033371	0.049615274	-0.52067086	1.0222917	-0.17062713	-0.48536114	0.98630549	0.29916672	-0.44109136	0.77699939	-0.21578497	-0.22503594	0.88506006	0.26429072
166	0.66	0.081323617	0.022166878	0.020116025	-0.67034775	0.038017397	0.081297218	-0.074047084	0.030181885	-0.027663452	-0.8105728	0.073879415	0.095869902	-0.057542151	0.053798444	0.067664787	-0.78120535	0.10447859	0.0046425859	-0.13064242	-0.019347343	0.019620456	-0.87922983	0.06561034	0.034689937	-0.18120069	0.43034773	-0.073168418	-0.50178662	0.42210058	0.17587507	-0.18505108	0.42735865	0.054006734	-0.52026248	0.41770208	0.050906028	-0.37586352	0.8000028	-0.12289618	-0.46245954	0.81817621	0.24335185	-0.31096358	0.89293683	-0.053801255	-0.34226898	0.89914535	0.18913973	-0.49862845	0.94063998	0.037757756	-0.34840191	1.3443426	-0.11384723	-0.37535876	1.3521086	0.21698482	-0.42632825	1.4008531	0.049194401	-0.5142579	1.0197859	-0.17073768	-0.47998789	0.98422876	0.29851153	-0.43524836	0.77456264	-0.21652786	-0.22022714	0.88167592	0.26437209
167	0.664	0.082400576	0.014964231	0.020921504	-0.67016471	0.038109406	0.081388495	-0.072827268	0.026192427	-0.02746695	-0.81011901	0.075832645	0.095728255	-0.05600235	0.049516483	0.067852728	-0.77978843	0.10604237	0.0047557135	-0.13027409	-0.022095843	0.019556766	-0.87842388	0.068470789	0.034325637	-0.17425114	0.42788715	-0.072982627	-0.49133503	0.42012871	0.17519165	-0.1779509	0.42519635	0.054010209	-0.51465931	0.41526539	0.05147816	-0.36842367	0.79799246	-0.12289172	-0.45485707	0.8152683	0.24210843	-0.30346951	0.8906802	-0.053482799	-0.33543486	0.89658085	0.18946255	-0.49319493	0.9388891	0.038518576	-0.34228789	1.3419721	-0.11416528	-0.36951085	1.349949	0.21669842	-0.42018893	1.3984095	0.048768722	-0.50771717	1.0172911	-0.17083571	-0.47456276	0.98216552	0.29786133	-0.42932567	0.77216316	-0.21725631	-0.2154439	0.87823039	0.26449422
